# xmcd
#
# Track frame offsets:
#	150
#	12168
#	23724
#	40069
#	60938
#	85010
#	102677
#	118821
#	144923
#	158787
#	173830
#	187192
#	202838
#	216854
#	231947
#	246416
#	262526
#	277314
#
# Disc length: 3905 seconds
# Revision: 0
# Processed by: cddbd v1.5.2PL0 Copyright (c) Steve Scherf et al.
# Submitted via: dBpowerAMP V12.0
#
DISCID=f60f3f12
DTITLE=Clelia Adams - The Archives
DYEAR=2010
DGENRE=Country
TTITLE0=The Angels Rejoiced
TTITLE1=When The Man Said
TTITLE2=I Wanna Be With You Always
TTITLE3=My Sisters and Brothers
TTITLE4=Never Let Me Go
TTITLE5=Slow Roll
TTITLE6=You Gotta Know How
TTITLE7=Forever Young
TTITLE8=Find My Love
TTITLE9=Cowgirl Ride Away
TTITLE10=Just Because
TTITLE11=Curious Soul Astray
TTITLE12=You're Gonna Love Me One Day
TTITLE13=Speed of The Sound of Loneliness
TTITLE14=Heart Beat Highway
TTITLE15=Half as Much as I love You
TTITLE16=Wildflowers
TTITLE17=My Mothers Wedding Band
EXTD=
EXTT0=
EXTT1=
EXTT2=
EXTT3=
EXTT4=
EXTT5=
EXTT6=
EXTT7=
EXTT8=
EXTT9=
EXTT10=
EXTT11=
EXTT12=
EXTT13=
EXTT14=
EXTT15=
EXTT16=
EXTT17=
PLAYORDER=
